<svg width="1440" height="3192" viewBox="0 0 1440 3192" fill="none" xmlns="http://www.w3.org/2000/svg">
<g clip-path="url(#clip0_564_1551)">
<g filter="url(#filter0_f_564_1551)">
<path d="M961.838 1365.63C916.071 1342.82 921.15 1281.38 871.024 1271.28C784.695 1253.88 830.526 1418.62 871.024 1496.84C949.223 1647.87 1351.79 1660.77 1306.45 1496.84C1287.3 1427.61 1259.53 1370.92 1189.53 1354.87C1138.72 1343.23 1111.8 1386.69 1059.67 1385.81C1020.67 1385.16 996.755 1383.03 961.838 1365.63Z" fill="#02523A"/>
</g>
<g opacity="0.4" filter="url(#filter1_f_564_1551)">
<path d="M311.055 2395.29C257.034 2368.38 263.03 2295.91 203.864 2283.99C101.968 2263.46 156.063 2457.81 203.864 2550.08C296.165 2728.26 771.327 2743.48 717.81 2550.08C695.21 2468.41 662.428 2401.53 579.809 2382.61C519.83 2368.87 488.055 2420.14 426.531 2419.11C380.492 2418.33 352.268 2415.82 311.055 2395.29Z" fill="#5A4AF4"/>
</g>
<g filter="url(#filter2_f_564_1551)">
<ellipse cx="688.26" cy="1443.26" rx="200.84" ry="133.281" transform="rotate(-135 688.26 1443.26)" fill="#492C66"/>
</g>
<g opacity="0.4" filter="url(#filter3_f_564_1551)">
<ellipse cx="908.74" cy="2386.74" rx="236.953" ry="157.246" transform="rotate(-135 908.74 2386.74)" fill="#1EA5FC"/>
</g>
<g filter="url(#filter4_f_564_1551)">
<ellipse cx="1130.74" cy="463.743" rx="200.84" ry="133.281" transform="rotate(-135 1130.74 463.743)" fill="#251E62"/>
</g>
<g filter="url(#filter5_f_564_1551)">
<path d="M263.838 586.626C218.071 563.817 223.15 502.379 173.024 492.277C86.695 474.88 132.526 639.618 173.024 717.837C251.223 868.874 653.791 881.769 608.45 717.837C589.303 648.609 561.529 591.916 491.532 575.875C440.717 564.23 413.797 607.687 361.672 606.813C322.667 606.158 298.755 604.028 263.838 586.626Z" fill="#0C4265"/>
</g>
</g>
<defs>
<filter id="filter0_f_564_1551" x="472" y="920" width="1188" height="1045" filterUnits="userSpaceOnUse" color-interpolation-filters="sRGB">
<feFlood flood-opacity="0" result="BackgroundImageFix"/>
<feBlend mode="normal" in="SourceGraphic" in2="BackgroundImageFix" result="shape"/>
<feGaussianBlur stdDeviation="175" result="effect1_foregroundBlur_564_1551"/>
</filter>
<filter id="filter1_f_564_1551" x="-204" y="1932.48" width="1276" height="1107" filterUnits="userSpaceOnUse" color-interpolation-filters="sRGB">
<feFlood flood-opacity="0" result="BackgroundImageFix"/>
<feBlend mode="normal" in="SourceGraphic" in2="BackgroundImageFix" result="shape"/>
<feGaussianBlur stdDeviation="175" result="effect1_foregroundBlur_564_1551"/>
</filter>
<filter id="filter2_f_564_1551" x="167.8" y="922.799" width="1040.92" height="1040.92" filterUnits="userSpaceOnUse" color-interpolation-filters="sRGB">
<feFlood flood-opacity="0" result="BackgroundImageFix"/>
<feBlend mode="normal" in="SourceGraphic" in2="BackgroundImageFix" result="shape"/>
<feGaussianBlur stdDeviation="175" result="effect1_foregroundBlur_564_1551"/>
</filter>
<filter id="filter3_f_564_1551" x="357.63" y="1835.63" width="1102.22" height="1102.22" filterUnits="userSpaceOnUse" color-interpolation-filters="sRGB">
<feFlood flood-opacity="0" result="BackgroundImageFix"/>
<feBlend mode="normal" in="SourceGraphic" in2="BackgroundImageFix" result="shape"/>
<feGaussianBlur stdDeviation="175" result="effect1_foregroundBlur_564_1551"/>
</filter>
<filter id="filter4_f_564_1551" x="610.283" y="-56.7168" width="1040.92" height="1040.92" filterUnits="userSpaceOnUse" color-interpolation-filters="sRGB">
<feFlood flood-opacity="0" result="BackgroundImageFix"/>
<feBlend mode="normal" in="SourceGraphic" in2="BackgroundImageFix" result="shape"/>
<feGaussianBlur stdDeviation="175" result="effect1_foregroundBlur_564_1551"/>
</filter>
<filter id="filter5_f_564_1551" x="-226" y="141" width="1188" height="1045" filterUnits="userSpaceOnUse" color-interpolation-filters="sRGB">
<feFlood flood-opacity="0" result="BackgroundImageFix"/>
<feBlend mode="normal" in="SourceGraphic" in2="BackgroundImageFix" result="shape"/>
<feGaussianBlur stdDeviation="175" result="effect1_foregroundBlur_564_1551"/>
</filter>
<clipPath id="clip0_564_1551">
<rect width="1440" height="3192" fill="white"/>
</clipPath>
</defs>
</svg>
